<svg width="71" height="71" viewBox="0 0 71 71" fill="none" xmlns="http://www.w3.org/2000/svg">
<path fill-rule="evenodd" clip-rule="evenodd" d="M70.6619 35.8368C70.6619 55.1668 54.9921 70.8367 35.662 70.8367C16.3321 70.8367 0.661926 55.1668 0.661926 35.8368C0.661926 16.5069 16.3321 0.83667 35.662 0.83667C54.9921 0.83667 70.6619 16.5069 70.6619 35.8368ZM50.3223 23.9124C50.9173 23.9124 51.3998 23.4299 51.3998 22.8348C51.3998 22.2397 50.9173 21.7573 50.3223 21.7573H46.5761C45.9811 21.7573 45.4987 22.2397 45.4987 22.8348C45.4987 23.4299 45.9811 23.9124 46.5761 23.9124H50.3223ZM53.9727 36.3372H57.7188C58.3139 36.3372 58.7963 36.8197 58.7963 37.4147C58.7963 38.0097 58.3139 38.4922 57.7188 38.4922H53.9727C53.3776 38.4922 52.8952 38.0097 52.8952 37.4147C52.8952 36.8197 53.3776 36.3372 53.9727 36.3372ZM51.9438 47.7612H48.1977C47.6026 47.7612 47.1201 48.2435 47.1201 48.8387C47.1201 49.4337 47.6026 49.9161 48.1977 49.9161H51.9438C52.5388 49.9161 53.0213 49.4337 53.0213 48.8387C53.0213 48.2435 52.5389 47.7612 51.9438 47.7612ZM44.5421 52.0714H51.9438C52.5389 52.0714 53.0213 52.5539 53.0213 53.1489C53.0213 53.744 52.5389 54.2265 51.9438 54.2265H44.0954C43.8094 54.2265 43.5351 54.1127 43.333 53.9105L38.9051 49.4777C38.2971 49.61 37.6745 49.703 37.04 49.7527V38.4897L44.9934 46.4432C43.8765 47.4011 42.607 48.1847 41.2272 48.753L44.5421 52.0714ZM34.8851 33.2875V21.9549C31.84 22.1856 29.0659 23.4002 26.8791 25.2808L34.8851 33.2875ZM34.8851 49.7556C29.6285 49.3582 25.1771 46.0266 23.1656 41.3971L21.391 43.2315C21.2011 43.4278 20.9393 43.5388 20.6661 43.5388H12.7236C12.1665 43.5388 11.7149 43.0872 11.7149 42.5301C11.7149 41.973 12.1665 41.5214 12.7236 41.5214H20.2384L22.4352 39.2504C22.1623 38.1632 22.0174 37.0257 22.0174 35.855C22.0174 32.4047 23.2767 29.244 25.3576 26.8075L34.8851 36.3348V49.7556ZM40.9565 22.8491L44.1998 19.6023H50.3223C50.9172 19.6023 51.3997 19.1198 51.3997 18.5247C51.3997 17.9298 50.9172 17.4473 50.3223 17.4473H43.7531C43.4673 17.4473 43.1928 17.561 42.9908 17.7632L38.5909 22.1678C38.083 22.0695 37.5657 21.9982 37.04 21.9571V33.2873L45.0294 25.2979C43.8317 24.2637 42.4563 23.4303 40.9565 22.8491ZM37.486 35.8886L46.5471 26.8273C48.2873 28.8716 49.4488 31.4233 49.7762 34.2269L51.6581 32.3429C51.7485 32.2525 51.8532 32.1797 51.9671 32.127C52.0267 32.0993 52.0888 32.0772 52.1527 32.0608C52.1939 32.0502 52.2356 32.0421 52.278 32.0364C52.325 32.0302 52.3726 32.027 52.4203 32.027H57.7188C58.3139 32.027 58.7963 32.5093 58.7963 33.1044C58.7963 33.6996 58.3139 34.182 57.7188 34.182H52.8671L49.8003 37.2519C49.5087 40.1602 48.3181 42.8121 46.5156 44.918L37.486 35.8886ZM12.7236 36.9185C12.2384 36.9185 11.8451 37.3119 11.8451 37.797C11.8451 38.2822 12.2384 38.6755 12.7236 38.6755H16.789C17.2743 38.6755 17.6676 38.2822 17.6676 37.797C17.6676 37.3119 17.2743 36.9185 16.789 36.9185H12.7236Z" fill="white"/>
</svg>
