<svg width="71" height="71" viewBox="0 0 71 71" fill="none" xmlns="http://www.w3.org/2000/svg">
<path fill-rule="evenodd" clip-rule="evenodd" d="M35.6621 70.1274C54.9921 70.1274 70.6621 54.4576 70.6621 35.1276C70.6621 15.7976 54.9921 0.127441 35.6621 0.127441C16.3321 0.127441 0.661926 15.7976 0.661926 35.1276C0.661926 54.4576 16.3321 70.1274 35.6621 70.1274ZM44.7734 15.2083C46.0944 15.2083 47.3612 15.7326 48.2958 16.6661V16.6628L54.1775 22.5445C55.1121 23.4793 55.637 24.7469 55.637 26.0685C55.637 27.3902 55.1121 28.6579 54.1775 29.5926L48.5118 35.2683C49.5816 35.5445 50.5293 36.1683 51.2059 37.0416C51.8826 37.915 52.2499 38.9885 52.2502 40.0932V50.0623C52.2502 51.3843 51.7251 52.6522 50.7902 53.5869C49.8555 54.5216 48.5877 55.0468 47.2656 55.0468H20.6816C19.6215 55.0468 18.6347 54.7145 17.8272 54.1496C16.5346 53.2523 15.6871 51.7503 15.6871 50.0557V23.4782C15.6871 22.1563 16.2123 20.8885 17.1471 19.9537C18.0819 19.0189 19.3496 18.4937 20.6717 18.4937H30.6407C31.7748 18.494 32.8749 18.881 33.7594 19.5909C34.6438 20.3008 35.2599 21.2911 35.5056 22.3982L41.2511 16.6661C42.1857 15.7326 43.4525 15.2083 44.7734 15.2083ZM40.8756 35.1088L35.6252 29.8585V35.1088H40.8756ZM19.0102 35.1088H32.3022V23.4782C32.3022 23.0375 32.1272 22.6149 31.8155 22.3034C31.504 21.9917 31.0814 21.8167 30.6407 21.8167H20.6717C20.231 21.8167 19.8084 21.9917 19.4968 22.3034C19.1852 22.6149 19.0102 23.0375 19.0102 23.4782V35.1088ZM19.2042 50.8291C19.3263 51.0663 19.5037 51.2705 19.7213 51.4248V51.4181C19.9998 51.6132 20.3316 51.7177 20.6717 51.7172H32.3022V38.4318H19.0201V50.0623C19.0194 50.2189 19.041 50.3743 19.0837 50.5241C19.1137 50.6292 19.1539 50.7314 19.2042 50.8291ZM35.6252 38.4318V51.7238H47.2656C47.7063 51.7238 48.1289 51.5488 48.4406 51.2371C48.7521 50.9256 48.9272 50.5029 48.9272 50.0623V40.0932C48.9272 39.6526 48.7521 39.23 48.4406 38.9185C48.1289 38.6068 47.7063 38.4318 47.2656 38.4318H35.6252Z" fill="#4EC9B0"/>
</svg>
