<svg width="71" height="71" viewBox="0 0 71 71" fill="none" xmlns="http://www.w3.org/2000/svg">
<path fill-rule="evenodd" clip-rule="evenodd" d="M35.2342 70.4824C54.5642 70.4824 70.2346 54.8125 70.2346 35.4826C70.2346 16.1526 54.5642 0.482422 35.2342 0.482422C15.9042 0.482422 0.23407 16.1526 0.23407 35.4826C0.23407 54.8125 15.9042 70.4824 35.2342 70.4824ZM31.5698 19.622V17.093H38.8986V19.622H49.5352C49.8694 18.9971 50.5283 18.572 51.2867 18.572H51.6388C52.7351 18.572 53.6239 19.4607 53.6239 20.557V20.8391C53.6239 21.9354 52.7351 22.8241 51.6388 22.8241H51.2867C50.5282 22.8241 49.8692 22.3988 49.5349 21.7737H43.7138C48.5546 24.4376 51.9233 29.3319 52.5962 35.0704H53.6239V39.3225H49.3016V35.0704H50.4277C49.585 28.7533 45.029 23.6685 38.8986 22.2017V24.303H36.737H33.7313H31.5698V22.2016C25.4392 23.6682 20.883 28.7532 20.0402 35.0704H21.1669V39.3225H16.8447V35.0704H17.8717C18.5447 29.3319 21.9134 24.4376 26.7541 21.7737H20.9335C20.5992 22.3988 19.9401 22.8241 19.1819 22.8241H18.8297C17.7334 22.8241 16.8447 21.9354 16.8447 20.8391V20.557C16.8447 19.4607 17.7334 18.572 18.8297 18.572H19.1819C19.94 18.572 20.5989 18.9971 20.9334 19.622H31.5698ZM33.7313 24.303V38.0082C33.1583 38.3337 32.7105 38.8361 32.4572 39.4374C32.204 40.0388 32.1597 40.7057 32.3309 41.3343C32.5022 41.9631 32.8795 42.5187 33.4044 42.9148C33.9293 43.3112 34.5725 43.5259 35.2341 43.5259C35.8958 43.5259 36.5389 43.3112 37.0639 42.9148C37.5888 42.5187 37.966 41.9631 38.1374 41.3343C38.3086 40.7057 38.2641 40.0388 38.0109 39.4374C37.7577 38.8361 37.3099 38.3337 36.737 38.0082V24.303L45.7538 40.5659L39.7426 49.4367H30.7257L24.7144 40.5659L33.7313 24.303ZM29.223 52.3936C29.223 51.5771 29.8848 50.9151 30.7013 50.9151H39.7668C40.5834 50.9151 41.2453 51.5771 41.2453 52.3936C41.2453 53.2101 40.5834 53.8721 39.7668 53.8721H30.7013C29.8848 53.8721 29.223 53.2101 29.223 52.3936Z" fill="#D15036"/>
</svg>
