<svg width="71" height="71" viewBox="0 0 71 71" fill="none" xmlns="http://www.w3.org/2000/svg">
<path fill-rule="evenodd" clip-rule="evenodd" d="M35.662 70.4819C54.9921 70.4819 70.6623 54.812 70.6623 35.4821C70.6623 16.1521 54.9921 0.481934 35.662 0.481934C16.3321 0.481934 0.661926 16.1521 0.661926 35.4821C0.661926 54.812 16.3321 70.4819 35.662 70.4819ZM25.0355 49.8992V21.0648H46.2886V49.8992H25.0355ZM21.0632 19.863C21.0632 18.3329 22.3037 17.0925 23.8338 17.0925H47.4905C49.0206 17.0925 50.2609 18.3329 50.2609 19.863V51.1011C50.2609 52.6312 49.0206 53.8716 47.4905 53.8716H23.8338C22.3037 53.8716 21.0632 52.6312 21.0632 51.1011V19.863ZM35.6253 46.2215H33.0094L29.1777 42.3529L31.7936 39.7739L34.3358 42.2792L39.5306 37.0843L42.1465 39.7001L35.6253 46.2215ZM33.0094 33.8798H35.6253L42.1465 27.3585L39.5306 24.7426L34.3358 29.9376L31.7936 27.4322L29.1777 30.0112L33.0094 33.8798Z" fill="#CE9178"/>
</svg>
