<svg width="71" height="71" viewBox="0 0 71 71" fill="none" xmlns="http://www.w3.org/2000/svg">
<path fill-rule="evenodd" clip-rule="evenodd" d="M70.2346 35.8367C70.2346 55.1667 54.5647 70.8367 35.2347 70.8367C15.9047 70.8367 0.23468 55.1667 0.23468 35.8367C0.23468 16.5067 15.9047 0.83667 35.2347 0.83667C54.5647 0.83667 70.2346 16.5067 70.2346 35.8367ZM35.2746 21.8329C31.575 21.8329 28.0268 23.3026 25.4108 25.9186C22.7948 28.5347 21.3251 32.0827 21.3251 35.7824C21.3251 39.482 22.7948 43.0301 25.4108 45.6461C28.0268 48.2621 31.575 49.7318 35.2746 49.7318C38.9742 49.7318 42.5223 48.2621 45.1383 45.6461C47.7544 43.0301 49.2241 39.482 49.2241 35.7824C49.2241 32.0827 47.7544 28.5347 45.1383 25.9186C42.5223 23.3026 38.9742 21.8329 35.2746 21.8329ZM22.6234 23.1312C25.9787 19.7759 30.5295 17.8909 35.2746 17.8909C40.0197 17.8909 44.5705 19.7759 47.9258 23.1312C51.281 26.4865 53.166 31.0373 53.166 35.7824C53.166 39.8628 51.7722 43.7995 49.2481 46.9559L56.3359 54.0563L53.5461 56.8413L46.4621 49.7447C43.3034 52.2758 39.361 53.6738 35.2746 53.6738C30.5295 53.6738 25.9787 51.7889 22.6234 48.4336C19.2681 45.0783 17.3831 40.5275 17.3831 35.7824C17.3831 31.0373 19.2681 26.4865 22.6234 23.1312ZM42.0081 38.1321C42.8552 38.9759 43.5299 39.9764 43.995 41.0778C44.4535 42.16 44.6975 43.3063 44.7222 44.4846C44.7228 44.5109 44.7182 44.5371 44.7086 44.5615C44.699 44.5861 44.6845 44.6084 44.6662 44.6272C44.6478 44.6461 44.6258 44.661 44.6016 44.6713C44.5774 44.6815 44.5513 44.6867 44.525 44.6867H43.0459C42.9375 44.6867 42.8512 44.6029 42.8487 44.4944C42.7994 42.5914 42.0353 40.8092 40.6844 39.4583C39.2867 38.0606 37.4305 37.2915 35.4535 37.2915C33.4765 37.2915 31.6203 38.0606 30.2227 39.4583C28.8718 40.8092 28.1076 42.5914 28.0583 44.4944C28.0559 44.6005 27.9696 44.6867 27.8611 44.6867H26.3821C26.3558 44.6867 26.3297 44.6815 26.3055 44.6713C26.2812 44.661 26.2592 44.6461 26.2409 44.6272C26.2225 44.6084 26.2081 44.5861 26.1984 44.5615C26.1888 44.5371 26.1842 44.5109 26.1849 44.4846C26.2075 43.3138 26.4544 42.1582 26.9121 41.0803C27.3779 39.9793 28.0527 38.979 28.8989 38.1346C29.7494 37.2816 30.7403 36.6136 31.8446 36.1477C31.8545 36.1428 31.8644 36.1403 31.8743 36.1354C30.3385 35.0236 29.3402 33.2168 29.3402 31.1782C29.3402 27.801 32.0764 25.0648 35.4535 25.0648C38.8307 25.0648 41.5669 27.801 41.5669 31.1782C41.5669 33.2168 40.5686 35.0236 39.0328 36.1329C39.0377 36.1354 39.0426 36.1372 39.0476 36.1391C39.0525 36.141 39.0575 36.1428 39.0624 36.1452C40.1633 36.6112 41.1637 37.2859 42.0081 38.1321ZM32.456 34.1757C33.2571 34.9769 34.3221 35.4181 35.4535 35.4181C36.585 35.4181 37.6499 34.9769 38.451 34.1757C39.2522 33.3745 39.6935 32.3096 39.6935 31.1782C39.6935 30.0467 39.2522 28.9818 38.451 28.1807C37.6499 27.3795 36.585 26.9382 35.4535 26.9382C34.3221 26.9382 33.2571 27.3795 32.456 28.1807C31.6549 28.9818 31.2136 30.0467 31.2136 31.1782C31.2136 32.3096 31.6549 33.3745 32.456 34.1757Z" fill="#FFC813"/>
</svg>
