<svg width="71" height="71" viewBox="0 0 71 71" fill="none" xmlns="http://www.w3.org/2000/svg">
<path fill-rule="evenodd" clip-rule="evenodd" d="M35.2342 70.1279C54.5642 70.1279 70.2344 54.458 70.2344 35.128C70.2344 15.798 54.5642 0.12793 35.2342 0.12793C15.9043 0.12793 0.234192 15.798 0.234192 35.128C0.234192 54.458 15.9043 70.1279 35.2342 70.1279ZM44.3132 38.6472C45.79 39.3323 47.1345 40.2723 48.2852 41.4239C50.8045 43.9386 52.2296 47.2578 52.3216 50.7977C52.3228 50.8468 52.3142 50.8956 52.2963 50.9413C52.2783 50.9869 52.2514 51.0286 52.2171 51.0637C52.1829 51.0988 52.1419 51.1267 52.0967 51.1458C52.0514 51.1649 52.0029 51.1747 51.9538 51.1747H49.3793C49.1817 51.1747 49.0162 51.0184 49.0116 50.8207C48.9196 48.1543 47.8393 45.658 45.9452 43.7639C43.9638 41.7825 41.3296 40.693 38.5299 40.693C37.1522 40.6891 35.7874 40.9586 34.5146 41.4857C33.2418 42.0128 32.0861 42.7872 31.1145 43.7639C29.2159 45.658 28.1355 48.1543 28.0482 50.8207C28.0436 51.0184 27.878 51.1747 27.6804 51.1747H25.106C25.0569 51.1747 25.0083 51.1649 24.963 51.1458C24.9178 51.1267 24.8768 51.0988 24.8426 51.0637C24.8083 51.0286 24.7814 50.9869 24.7635 50.9413C24.7456 50.8956 24.7369 50.8468 24.7381 50.7977C24.8301 47.2578 26.2552 43.9386 28.7654 41.4239C29.9157 40.2719 31.2603 39.3319 32.7373 38.6472C30.6594 36.96 29.3262 34.3856 29.3262 31.4985C29.3262 26.4691 33.3672 22.3822 38.3827 22.304C43.4765 22.2259 47.7243 26.4047 47.7243 31.4985C47.7243 34.3856 46.3957 36.96 44.3132 38.6472ZM34.3694 35.659C35.4773 36.7715 36.9576 37.383 38.5299 37.383C39.3036 37.3852 40.0701 37.234 40.785 36.9381C41.5 36.6422 42.1491 36.2074 42.695 35.659C43.8075 34.5464 44.4189 33.0708 44.4189 31.4985C44.4189 29.9078 43.7937 28.4137 42.6536 27.2966C41.541 26.2071 40.0286 25.6002 38.4701 25.614C36.8932 25.6324 35.4175 26.2623 34.3142 27.3932C33.2614 28.4735 32.6592 29.9309 32.6454 31.4387C32.6347 32.2219 32.7817 32.9992 33.078 33.7243C33.3741 34.4494 33.8133 35.1073 34.3694 35.659ZM26.9495 31.4985C26.9495 31.9076 26.9724 32.3122 27.0138 32.7122C27.0368 32.896 26.9172 33.0661 26.738 33.1121C24.9312 33.5672 23.2762 34.5051 21.9247 35.8566C20.026 37.7507 18.9456 40.247 18.8583 42.9134C18.8537 43.1111 18.6882 43.2674 18.4905 43.2674H15.9115C15.8624 43.2674 15.8138 43.2576 15.7686 43.2385C15.7233 43.2195 15.6824 43.1916 15.6481 43.1565C15.6138 43.1213 15.5869 43.0797 15.569 43.034C15.5511 42.9883 15.5425 42.9395 15.5437 42.8904C15.6356 39.346 17.0608 36.0268 19.5801 33.5121C20.7477 32.3444 22.0948 31.4112 23.5567 30.7353C21.4741 29.0482 20.1455 26.4737 20.1455 23.5866C20.1455 18.4975 24.3934 14.3186 29.4917 14.3968C33.0224 14.452 36.075 16.4931 37.5691 19.4492C37.684 19.679 37.5368 19.9548 37.2794 19.9824C36.4013 20.0744 35.5463 20.2721 34.7372 20.5525C34.5809 20.6077 34.4016 20.5479 34.3096 20.4053C34.0475 20.0008 33.735 19.6238 33.3718 19.2837C32.3006 18.2814 30.8847 17.716 29.4182 17.7022C27.7953 17.6838 26.269 18.3182 25.1335 19.4813C24.0991 20.5387 23.5061 21.9408 23.4647 23.4166C23.4402 24.2311 23.5858 25.0418 23.8921 25.7969C24.1985 26.5521 24.6588 27.235 25.2439 27.8023C25.7403 28.2896 26.315 28.6758 26.9402 28.9562C27.0919 29.0252 27.1793 29.1953 27.1471 29.3608C27.0184 30.055 26.9495 30.7676 26.9495 31.4985Z" fill="#358CD6"/>
</svg>
